Coordinates
version=1
nRows=19
nColumns=34
inDegrees=no

Units are S.I. units (second, meters, Newtons, ...)
If the header above contains a line with 'inDegrees', this indicates whether rotational values are in degrees (yes) or radians (no).

endheader
time	pelvis_tilt	pelvis_list	pelvis_rotation	pelvis_tx	pelvis_ty	pelvis_tz	hip_flexion_r	hip_adduction_r	hip_rotation_r	knee_angle_r	ankle_angle_r	subtalar_angle_r	mtp_angle_r	hip_flexion_l	hip_adduction_l	hip_rotation_l	knee_angle_l	ankle_angle_l	subtalar_angle_l	mtp_angle_l	lumbar_extension	lumbar_bending	lumbar_rotation	arm_flex_r	arm_add_r	arm_rot_r	elbow_flex_r	pro_sup_r	arm_flex_l	arm_add_l	arm_rot_l	elbow_flex_l	pro_sup_l
6	-0.311249	-0.0348163	-0.0574501	-0.30579	1.09863	-0.595255	0.663198	-0.140596	-0.125095	0.41705	0.0458387	0.0840105	-0.0169798	0.656154	-0.292122	-0.277126	0.458886	0.104001	0.163698	-0.0200437	-0.375455	0.0214254	0.174571	0.753522	-0.325188	0.304904	1.76264	1.66728	0.933814	-0.191655	0.648249	1.61165	1.75862
6.01	-0.29222	-0.0332532	-0.0555148	-0.298915	1.10441	-0.59516	0.62481	-0.142087	-0.127832	0.395155	0.0408569	0.0909432	-0.0169778	0.614244	-0.283487	-0.280018	0.430005	0.0944194	0.163982	-0.0200447	-0.367757	0.0214792	0.171561	0.710251	-0.317954	0.300633	1.76804	1.67568	0.893991	-0.19773	0.648939	1.61879	1.76737
6.02	-0.273555	-0.0317064	-0.0537231	-0.292053	1.1099	-0.595044	0.587099	-0.143477	-0.130643	0.3737	0.0357289	0.0978306	-0.0169759	0.572889	-0.274958	-0.282513	0.401239	0.0851099	0.164414	-0.0200456	-0.359861	0.0215023	0.168382	0.668346	-0.310973	0.297426	1.77307	1.68389	0.854357	-0.203959	0.648897	1.62606	1.77433
6.03	-0.255251	-0.0302513	-0.052104	-0.285211	1.11508	-0.5949	0.550058	-0.144699	-0.13367	0.352696	0.03056	0.104796	-0.016974	0.532141	-0.26669	-0.284739	0.372739	0.0761304	0.165194	-0.0200466	-0.35179	0.0215643	0.164985	0.627841	-0.30416	0.295275	1.77762	1.69172	0.814823	-0.210375	0.647892	1.63359	1.77966
6.04	-0.23731	-0.0289431	-0.050667	-0.278401	1.11996	-0.594727	0.513686	-0.14571	-0.137065	0.332166	0.0255212	0.112005	-0.016972	0.492062	-0.25881	-0.286825	0.344665	0.0675241	0.166496	-0.0200475	-0.343562	0.0217147	0.161301	0.588769	-0.297445	0.294211	1.78163	1.69878	0.775316	-0.217008	0.645728	1.64156	1.78362
6.05	-0.219732	-0.0278165	-0.0493933	-0.27163	1.12452	-0.594521	0.477984	-0.1465	-0.140986	0.312146	0.020819	0.119658	-0.0169701	0.452723	-0.251403	-0.288875	0.317177	0.0593288	0.168455	-0.0200484	-0.335193	0.0219861	0.157261	0.551148	-0.29079	0.294282	1.78509	1.70462	0.735796	-0.223851	0.642274	1.65007	1.78649
6.06	-0.202516	-0.0268905	-0.0482376	-0.26491	1.12876	-0.594284	0.442952	-0.147082	-0.145593	0.29268	0.0166545	0.127971	-0.0169681	0.414197	-0.244515	-0.290964	0.290422	0.0515859	0.171165	-0.0200493	-0.326708	0.0223984	0.152808	0.514987	-0.284211	0.295516	1.78802	1.70881	0.696268	-0.230853	0.637485	1.65919	1.7885
6.07	-0.185652	-0.026176	-0.0471413	-0.258252	1.13269	-0.59402	0.408592	-0.147475	-0.15102	0.273815	0.0131851	0.137132	-0.0169662	0.376551	-0.238174	-0.293147	0.264529	0.0443491	0.174683	-0.0200503	-0.318146	0.022963	0.147923	0.480276	-0.277769	0.297892	1.7905	1.71109	0.656784	-0.237903	0.631416	1.66893	1.78976
6.08	-0.169118	-0.0256797	-0.0460473	-0.251671	1.13629	-0.593734	0.374896	-0.147693	-0.157333	0.255597	0.0104989	0.147256	-0.0169642	0.339833	-0.232392	-0.295473	0.239606	0.0376806	0.179047	-0.0200512	-0.30957	0.0236841	0.142633	0.446996	-0.271562	0.301308	1.79264	1.71161	0.617457	-0.244847	0.624232	1.67921	1.79023
6.09	-0.152877	-0.0254021	-0.0449141	-0.245182	1.13958	-0.593434	0.341849	-0.147736	-0.164499	0.238065	0.00861036	0.15834	-0.0169622	0.304061	-0.227173	-0.298001	0.215728	0.0316404	0.184282	-0.0200521	-0.30107	0.0245565	0.137019	0.415119	-0.265709	0.305595	1.79455	1.71091	0.578445	-0.251508	0.61618	1.68989	1.78971
6.1	-0.136868	-0.0253347	-0.0437232	-0.2388	1.14256	-0.593124	0.309425	-0.147599	-0.172376	0.221248	0.00747785	0.170251	-0.0169603	0.269209	-0.222508	-0.300796	0.192934	0.026272	0.190399	-0.0200529	-0.292775	0.0255655	0.131207	0.384615	-0.260324	0.310541	1.79637	1.70966	0.539944	-0.257711	0.607563	1.70083	1.78798
6.11	-0.121005	-0.0254633	-0.04248	-0.232543	1.14526	-0.592809	0.277576	-0.147265	-0.18073	0.20517	0.00703134	0.182743	-0.0169583	0.235202	-0.218379	-0.303918	0.171227	0.0215977	0.197391	-0.0200538	-0.284855	0.0266897	0.125353	0.355458	-0.255499	0.315929	1.79826	1.70846	0.50217	-0.26331	0.598685	1.71184	1.78488
6.12	-0.105171	-0.0257786	-0.0412054	-0.226432	1.14768	-0.592492	0.246232	-0.146709	-0.189279	0.189839	0.00719654	0.195495	-0.0169563	0.201924	-0.214766	-0.307407	0.150593	0.0176204	0.205219	-0.0200547	-0.277516	0.0279092	0.11961	0.327637	-0.251296	0.32158	1.80034	1.70777	0.465339	-0.268208	0.589798	1.72277	1.78054
6.13	-0.0892212	-0.0262829	-0.0399244	-0.220484	1.14985	-0.592176	0.215291	-0.1459	-0.197733	0.175253	0.00790666	0.208154	-0.0169543	0.169229	-0.211653	-0.311255	0.131022	0.0143314	0.213788	-0.0200556	-0.270992	0.0292088	0.114108	0.301159	-0.247749	0.327378	1.80273	1.70792	0.429647	-0.272371	0.581067	1.73349	1.77533
6.14	-0.0730099	-0.0269802	-0.0386539	-0.214717	1.1518	-0.59186	0.184621	-0.144805	-0.205822	0.161394	0.00910273	0.220369	-0.0169523	0.136958	-0.209025	-0.315404	0.112533	0.0117192	0.222934	-0.0200564	-0.265536	0.0305798	0.108936	0.276055	-0.244867	0.333285	1.80546	1.70903	0.395269	-0.275823	0.572557	1.7439	1.76989
6.15	-0.0564008	-0.0278697	-0.0373976	-0.209149	1.15355	-0.591545	0.15408	-0.143402	-0.213328	0.148235	0.0107294	0.231839	-0.0169503	0.104964	-0.206862	-0.319755	0.0951958	0.0097783	0.232431	-0.0200573	-0.261385	0.0320151	0.104146	0.252374	-0.242642	0.339319	1.80854	1.71106	0.362355	-0.278637	0.56428	1.75393	1.76493
6.16	-0.039284	-0.0289424	-0.0361487	-0.203794	1.15513	-0.591229	0.123547	-0.141689	-0.220097	0.135748	0.0127315	0.242345	-0.0169483	0.0731494	-0.20514	-0.324189	0.0791478	0.00851235	0.242015	-0.0200581	-0.258736	0.033506	0.0997625	0.230166	-0.241053	0.345525	1.81191	1.71384	0.331033	-0.280912	0.556238	1.76352	1.76101
6.17	-0.0216004	-0.0301786	-0.0348924	-0.198666	1.15655	-0.590915	0.0929576	-0.13969	-0.22605	0.12392	0.0150535	0.251769	-0.0169463	0.0414953	-0.203829	-0.328585	0.0645861	0.0079333	0.251416	-0.0200589	-0.257713	0.0350391	0.0957924	0.209465	-0.24006	0.351925	1.8155	1.71707	0.301411	-0.282737	0.548461	1.77263	1.75846
6.18	-0.00335758	-0.0315441	-0.0336094	-0.193776	1.15784	-0.590607	0.0623336	-0.137459	-0.23118	0.112766	0.0176451	0.260088	-0.0169443	0.0100779	-0.202894	-0.332837	0.0517463	0.00805678	0.260395	-0.0200598	-0.258345	0.0365945	0.0922353	0.190278	-0.239602	0.358496	1.8192	1.72044	0.27357	-0.284182	0.541009	1.78117	1.75736
